<svg id="visual" viewBox="0 0 900 600" width="900" height="600" xmlns="http://www.w3.org/2000/svg" xmlns:xlink="http://www.w3.org/1999/xlink" version="1.1"><path d="M0 133L82 133L82 73L164 73L164 79L245 79L245 151L327 151L327 127L409 127L409 133L491 133L491 73L573 73L573 157L655 157L655 73L736 73L736 97L818 97L818 121L900 121L900 85L900 0L900 0L818 0L818 0L736 0L736 0L655 0L655 0L573 0L573 0L491 0L491 0L409 0L409 0L327 0L327 0L245 0L245 0L164 0L164 0L82 0L82 0L0 0Z" fill="#ffffff"></path><path d="M0 217L82 217L82 151L164 151L164 163L245 163L245 205L327 205L327 229L409 229L409 187L491 187L491 151L573 151L573 217L655 217L655 181L736 181L736 145L818 145L818 205L900 205L900 193L900 83L900 119L818 119L818 95L736 95L736 71L655 71L655 155L573 155L573 71L491 71L491 131L409 131L409 125L327 125L327 149L245 149L245 77L164 77L164 71L82 71L82 131L0 131Z" fill="#c9cee3"></path><path d="M0 265L82 265L82 235L164 235L164 259L245 259L245 247L327 247L327 307L409 307L409 241L491 241L491 235L573 235L573 277L655 277L655 247L736 247L736 211L818 211L818 295L900 295L900 241L900 191L900 203L818 203L818 143L736 143L736 179L655 179L655 215L573 215L573 149L491 149L491 185L409 185L409 227L327 227L327 203L245 203L245 161L164 161L164 149L82 149L82 215L0 215Z" fill="#939fc8"></path><path d="M0 451L82 451L82 403L164 403L164 457L245 457L245 433L327 433L327 409L409 409L409 463L491 463L491 391L573 391L573 415L655 415L655 481L736 481L736 355L818 355L818 487L900 487L900 445L900 239L900 293L818 293L818 209L736 209L736 245L655 245L655 275L573 275L573 233L491 233L491 239L409 239L409 305L327 305L327 245L245 245L245 257L164 257L164 233L82 233L82 263L0 263Z" fill="#5b73ac"></path><path d="M0 601L82 601L82 601L164 601L164 601L245 601L245 601L327 601L327 601L409 601L409 601L491 601L491 601L573 601L573 601L655 601L655 601L736 601L736 601L818 601L818 601L900 601L900 601L900 443L900 485L818 485L818 353L736 353L736 479L655 479L655 413L573 413L573 389L491 389L491 461L409 461L409 407L327 407L327 431L245 431L245 455L164 455L164 401L82 401L82 449L0 449Z" fill="#054a91"></path></svg>